<?xml version="1.0" encoding="UTF-8"?>
<!--
  Source:
  https://material.io/resources/icons/?style=round
-->
<svg xmlns="http://www.w3.org/2000/svg" style="display: none;">
  <symbol id="link" viewBox="0 0 24 24">
    <title>link</title>
    <desc>link</desc>
    <path d="M0 0h24v24H0V0z" fill="none" />
    <path d="M17 7h-3c-.55 0-1 .45-1 1s.45 1 1 1h3c1.65 0 3 1.35 3 3s-1.35 3-3 3h-3c-.55 0-1 .45-1 1s.45 1 1 1h3c2.76 0 5-2.24 5-5s-2.24-5-5-5zm-9 5c0 .55.45 1 1 1h6c.55 0 1-.45 1-1s-.45-1-1-1H9c-.55 0-1 .45-1 1zm2 3H7c-1.65 0-3-1.35-3-3s1.35-3 3-3h3c.55 0 1-.45 1-1s-.45-1-1-1H7c-2.76 0-5 2.24-5 5s2.24 5 5 5h3c.55 0 1-.45 1-1s-.45-1-1-1z" />
  </symbol>
  <symbol id="moon" viewBox="0 0 24 24">
    <title>bedtime</title>
    <desc>Moon</desc>
    <g>
      <rect fill="none" height="24" width="24" />
      <rect fill="none" height="24" width="24" />
    </g>
    <g>
      <g>
        <path d="M11.97,2.73c0.16-0.34-0.12-0.72-0.5-0.7C5.47,2.33,1,7.86,2.19,13.99c0.78,4.03,4.09,7.22,8.14,7.87 c4.07,0.66,7.77-1.14,9.87-4.15c0.21-0.31,0.04-0.75-0.33-0.79C13.13,16.16,9,8.96,11.97,2.73z" />
      </g>
    </g>
  </symbol>
  <symbol id="sun" viewBox="0 0 24 24">
    <title>wb_sunny</title>
    <desc>Sun</desc>
    <path d="M0 0h24v24H0V0z" fill="none" />
    <path d="M6.05 4.14l-.39-.39c-.39-.39-1.02-.38-1.4 0l-.01.01c-.39.39-.39 1.02 0 1.4l.39.39c.39.39 1.01.39 1.4 0l.01-.01c.39-.38.39-1.02 0-1.4zM3.01 10.5H1.99c-.55 0-.99.44-.99.99v.01c0 .55.44.99.99.99H3c.56.01 1-.43 1-.98v-.01c0-.56-.44-1-.99-1zm9-9.95H12c-.56 0-1 .44-1 .99v.96c0 .55.44.99.99.99H12c.56.01 1-.43 1-.98v-.97c0-.55-.44-.99-.99-.99zm7.74 3.21c-.39-.39-1.02-.39-1.41-.01l-.39.39c-.39.39-.39 1.02 0 1.4l.01.01c.39.39 1.02.39 1.4 0l.39-.39c.39-.39.39-1.01 0-1.4zm-1.81 15.1l.39.39c.39.39 1.02.39 1.41 0 .39-.39.39-1.02 0-1.41l-.39-.39c-.39-.39-1.02-.38-1.4 0-.4.4-.4 1.02-.01 1.41zM20 11.49v.01c0 .55.44.99.99.99H22c.55 0 .99-.44.99-.99v-.01c0-.55-.44-.99-.99-.99h-1.01c-.55 0-.99.44-.99.99zM12 5.5c-3.31 0-6 2.69-6 6s2.69 6 6 6 6-2.69 6-6-2.69-6-6-6zm-.01 16.95H12c.55 0 .99-.44.99-.99v-.96c0-.55-.44-.99-.99-.99h-.01c-.55 0-.99.44-.99.99v.96c0 .55.44.99.99.99zm-7.74-3.21c.39.39 1.02.39 1.41 0l.39-.39c.39-.39.38-1.02 0-1.4l-.01-.01c-.39-.39-1.02-.39-1.41 0l-.39.39c-.38.4-.38 1.02.01 1.41z" />
  </symbol>
</svg>
